<svg xmlns="http://www.w3.org/2000/svg" width="1200" height="1000" viewBox="0 0 1200 1000" fill="none">
  <g fill="#252C23">
    <path d="M82 994C177 761 238 543 258 300c9-110 7-208-7-294h22c19 148 19 297-2 447-28 201-88 382-169 541H82Z"/>
    <path d="M260 322C113 284 36 190 18 54c145 34 235 119 242 268Z"/>
    <path d="M247 456C93 479 18 570 0 702c151-19 239-99 247-246Z"/>
    <path d="M281 209C363 79 466 30 585 44 509 174 405 229 281 209Z"/>
    <path d="M268 573c135-79 259-69 367 15-132 86-255 82-367-15Z"/>
    <path d="M195 739C66 763 5 842 10 958c128-16 195-87 185-219Z"/>
    <path d="M312 770c118-55 224-34 305 55-118 62-220 44-305-55Z"/>
    <path d="M837 995c-53-189-66-372-37-549 21-126 65-244 132-354l19 11c-65 118-103 241-116 369-17 171-4 345 38 523h-36Z"/>
    <path d="M838 421c-123-94-164-212-125-347 124 87 170 201 125 347Z"/>
    <path d="M824 532c119-100 244-119 374-56-113 104-239 124-374 56Z"/>
    <path d="M858 289c84-123 188-164 312-123-78 122-181 168-312 123Z"/>
    <path d="M839 668c-131-50-238-19-322 94 128 57 235 28 322-94Z"/>
    <path d="M856 814c120-72 231-62 334 29-118 78-229 70-334-29Z"/>
  </g>
</svg>
